<svg xmlns="http://www.w3.org/2000/svg" xmlns:xlink="http://www.w3.org/1999/xlink" width="1024" zoomAndPan="magnify" viewBox="0 0 768 767.999994" height="1024" preserveAspectRatio="xMidYMid meet" version="1.0"><defs><clipPath id="2906f89784"><path d="M 159.796875 97 L 275 97 L 275 668 L 159.796875 668 Z M 159.796875 97 " clip-rule="nonzero"/></clipPath><clipPath id="4d5d1493c0"><path d="M 426 219 L 608.296875 219 L 608.296875 657 L 426 657 Z M 426 219 " clip-rule="nonzero"/></clipPath></defs><g clip-path="url(#2906f89784)"><path fill="#b66837" d="M 209.25 667.792969 C 204.769531 667.816406 200.375 667.207031 196.066406 665.960938 C 192.242188 664.925781 188.582031 663.484375 185.078125 661.628906 C 181.578125 659.777344 178.320312 657.5625 175.3125 654.980469 C 174.238281 653.957031 173.441406 652.742188 172.933594 651.347656 C 172.421875 649.949219 172.25 648.507812 172.414062 647.03125 C 171.558594 646.359375 170.886719 645.539062 170.394531 644.570312 C 168.550781 640.078125 167.710938 635.410156 167.871094 630.558594 L 167.871094 629.675781 C 167.871094 624.183594 167.429688 618.632812 167.175781 613.078125 C 166.796875 604.496094 166.292969 595.847656 165.789062 587.203125 L 165.09375 580.324219 C 163.832031 557.859375 163.078125 535.582031 162.570312 514.820312 C 162.066406 494.054688 161.246094 471.589844 160.425781 449.3125 C 159.605469 427.035156 159.796875 406.589844 159.796875 384.941406 C 159.796875 367.335938 159.796875 349.414062 159.796875 332.058594 L 159.796875 320.320312 C 159.796875 297.472656 160.113281 276.460938 160.425781 255.757812 C 160.425781 243.136719 160.425781 229.949219 160.425781 217.328125 C 160.425781 208.449219 160.425781 199.550781 160.425781 190.632812 C 160.425781 184.320312 160.425781 177.570312 160.425781 171.070312 C 160.425781 157.5 160.425781 143.492188 160.804688 129.667969 C 160.804688 125.441406 161.246094 120.394531 161.941406 115.46875 C 162.105469 114.164062 162.414062 112.894531 162.871094 111.664062 C 163.328125 110.429688 163.921875 109.265625 164.648438 108.171875 C 165.378906 107.074219 166.222656 106.078125 167.179688 105.179688 C 168.140625 104.28125 169.191406 103.503906 170.332031 102.847656 C 174.058594 101.015625 177.992188 99.902344 182.125 99.503906 C 187.617188 98.558594 193.148438 98.054688 198.71875 97.988281 L 201.113281 97.988281 C 210.277344 98.050781 219.402344 98.660156 228.492188 99.820312 C 232.402344 100.324219 236.566406 100.957031 241.738281 101.964844 L 242.242188 101.964844 C 244.132812 102.34375 246.152344 102.722656 248.046875 103.226562 C 249.359375 103.625 250.644531 104.109375 251.894531 104.679688 C 254.085938 105.75 255.855469 107.304688 257.191406 109.347656 C 258.871094 111.820312 260.199219 114.472656 261.167969 117.300781 C 262.777344 122.019531 264.101562 126.8125 265.140625 131.6875 C 267.222656 140.902344 268.863281 150.621094 270.503906 164 C 271.828125 174.476562 272.710938 185.140625 273.402344 195.050781 L 273.402344 197.511719 C 274.097656 206.976562 274.792969 216.441406 274.980469 226.351562 C 274.980469 233.105469 274.980469 239.917969 274.980469 246.609375 C 274.980469 250.648438 274.980469 254.6875 274.980469 258.726562 C 274.980469 262.765625 274.980469 268.003906 274.980469 272.609375 C 274.980469 278.289062 274.980469 283.96875 274.980469 289.648438 C 274.980469 305.300781 274.414062 321.203125 273.84375 336.664062 C 273.84375 342.15625 273.402344 347.707031 273.214844 353.199219 C 272.519531 372.132812 271.828125 394.722656 271.511719 416.875 C 271.511719 427.222656 271.511719 437.511719 271.132812 447.859375 L 271.132812 451.394531 C 271.132812 460.292969 271.132812 469.570312 271.132812 478.65625 C 271.132812 485.726562 271.511719 492.921875 271.765625 499.925781 C 271.765625 502.890625 271.765625 505.855469 271.765625 508.824219 L 272.140625 521.445312 C 272.140625 526.933594 272.457031 532.488281 272.648438 538.042969 C 272.960938 547.632812 273.214844 556.976562 272.648438 566.441406 C 272.648438 574.769531 272.140625 584.617188 272.648438 594.335938 C 272.648438 596.542969 272.648438 598.753906 272.648438 600.644531 C 272.648438 606.957031 273.152344 613.265625 273.023438 619.578125 C 272.898438 625.890625 272.015625 633.335938 271.195312 640.023438 L 271.195312 641.476562 L 270.816406 644.0625 C 270.257812 646.886719 269.019531 649.371094 267.097656 651.511719 C 264.9375 653.609375 262.414062 655.082031 259.527344 655.929688 C 257.800781 656.585938 256.035156 657.113281 254.226562 657.507812 C 249.875 658.640625 245.460938 659.902344 241.234375 661.101562 C 237.007812 662.300781 231.644531 663.878906 226.789062 665.078125 C 221.042969 666.636719 215.199219 667.539062 209.25 667.792969 Z M 209.25 667.792969 " fill-opacity="1" fill-rule="nonzero"/></g><path fill="#be9053" d="M 336.421875 583.226562 C 336.105469 578.054688 335.664062 572.878906 335.664062 567.703125 C 335.664062 562.527344 335.664062 556.660156 335.664062 551.167969 C 335.664062 540.882812 334.78125 530.53125 334.214844 520.246094 C 333.644531 509.960938 333.457031 499.734375 333.328125 489.511719 C 333.203125 479.289062 333.328125 469.695312 332.511719 459.789062 C 331.941406 451.457031 331.375 443.128906 330.871094 434.546875 L 330.871094 430.191406 C 330.871094 422.113281 331.25 414.855469 331.3125 407.535156 C 331.3125 398.195312 331.3125 387.214844 331.3125 375.980469 C 331.3125 367.273438 331.3125 355.785156 331.3125 344.425781 L 331.3125 341.964844 C 331.691406 333.570312 332.132812 323.03125 332.070312 313.1875 C 332.070312 306.183594 332.070312 299.179688 331.691406 291.035156 L 331.691406 282.894531 C 331.691406 272.609375 331.25 261.753906 331.183594 251.34375 C 331.183594 245.03125 331.183594 238.71875 331.183594 232.410156 L 331.183594 206.21875 C 331.183594 199.46875 331.183594 192.714844 330.808594 186.023438 C 330.808594 176.875 330.050781 167.09375 329.105469 155.292969 C 328.535156 148.980469 328.03125 144.058594 327.402344 139.324219 C 327.019531 132.128906 325.128906 125.355469 321.722656 119.003906 C 320.671875 117.378906 319.347656 116.015625 317.753906 114.921875 C 316.15625 113.828125 314.410156 113.085938 312.511719 112.695312 L 307.65625 112.25 L 306.207031 112.25 L 302.292969 111.9375 C 299.140625 111.9375 295.988281 111.429688 292.644531 111.429688 L 290.058594 111.429688 C 285.464844 111.6875 280.902344 112.191406 276.367188 112.945312 C 274.59375 113.191406 272.851562 113.570312 271.132812 114.082031 C 269.058594 114.546875 267.152344 115.394531 265.414062 116.617188 C 263.675781 117.84375 262.238281 119.351562 261.101562 121.148438 C 259.808594 123.777344 259.242188 126.554688 259.398438 129.480469 C 259.398438 130.617188 259.398438 131.816406 259.714844 132.953125 C 259.714844 135.855469 260.347656 138.757812 260.597656 141.660156 C 261.324219 155.351562 261.367188 169.046875 260.726562 182.742188 C 260.726562 187.414062 260.726562 192.082031 260.726562 196.753906 C 260.726562 217.074219 260.726562 237.898438 261.417969 260.492188 C 261.417969 270.085938 261.859375 281.128906 261.859375 292.046875 C 261.859375 297.664062 261.859375 303.21875 261.859375 308.769531 C 261.859375 314.324219 261.859375 318.804688 261.859375 323.789062 C 261.859375 335.339844 261.859375 345.308594 261.542969 354.335938 C 261.542969 356.605469 261.542969 358.941406 261.542969 361.59375 C 261.542969 369.480469 261.167969 377.621094 261.542969 385.636719 C 261.921875 393.652344 262.175781 403.179688 262.617188 411.761719 L 262.617188 418.515625 C 263.375 431.136719 263.816406 441.992188 264.003906 452.214844 C 264.003906 458.085938 264.003906 464.144531 264.003906 470.011719 L 264.003906 484.402344 C 264.003906 493.425781 264.507812 503.332031 265.203125 516.269531 L 265.203125 522.390625 C 265.769531 532.363281 266.148438 540 266.402344 547.636719 C 266.84375 559.308594 267.347656 569.847656 267.914062 579.695312 L 268.359375 586.886719 C 268.863281 594.648438 269.367188 602.601562 269.683594 610.492188 L 269.683594 616.042969 C 269.683594 619.261719 269.683594 622.921875 270.1875 626.519531 C 270.1875 627.53125 270.1875 628.539062 270.1875 629.613281 C 270.472656 631.832031 270.621094 634.0625 270.628906 636.300781 L 270.628906 636.933594 C 270.4375 640.414062 270.921875 643.804688 272.078125 647.09375 C 272.613281 648.628906 273.351562 650.058594 274.285156 651.382812 C 275.234375 651.382812 276.179688 651.828125 277.125 652.078125 C 278.703125 652.457031 280.28125 652.835938 281.917969 653.089844 L 288.417969 653.089844 L 292.894531 653.53125 C 295.535156 653.867188 298.183594 654.015625 300.84375 653.972656 L 305.636719 653.972656 C 306.835938 653.972656 308.035156 653.972656 309.234375 653.972656 C 312.511719 653.972656 315.855469 653.972656 319.136719 653.46875 L 327.402344 652.203125 L 328.347656 652.203125 C 329.226562 651.277344 329.960938 650.246094 330.554688 649.113281 C 331.941406 646.40625 332.949219 643.566406 333.582031 640.59375 C 334.734375 635.871094 335.574219 631.097656 336.105469 626.265625 C 336.484375 621.722656 336.484375 617.242188 336.609375 612.699219 C 337.179688 603.359375 336.988281 593.324219 336.421875 583.226562 Z M 336.421875 583.226562 " fill-opacity="1" fill-rule="nonzero"/><path fill="#eadfd1" d="M 383.792969 670.507812 L 382.34375 670.507812 C 380.007812 670.507812 377.992188 670.507812 376.035156 670.507812 L 372.691406 670.507812 C 369.539062 670.507812 366.890625 670 364.300781 669.875 L 357.554688 669.433594 C 355.28125 669.433594 353.136719 668.800781 351.246094 668.488281 L 347.398438 667.667969 C 346.136719 666.472656 345.109375 665.105469 344.304688 663.5625 C 343.460938 662 342.855469 660.347656 342.488281 658.609375 C 342.125 656.867188 342.015625 655.113281 342.160156 653.339844 L 342.160156 652.773438 C 342.125 650.65625 341.933594 648.550781 341.59375 646.460938 L 341.214844 643.496094 C 340.898438 640.023438 340.710938 636.492188 340.585938 633.589844 L 340.585938 632.640625 C 340.585938 631.125 340.585938 629.613281 340.585938 628.097656 C 340.144531 620.652344 339.449219 613.140625 338.753906 605.503906 L 338.125 598.625 C 337.367188 589.222656 336.671875 579.125 336.105469 567.890625 C 335.726562 560.570312 335.222656 553.628906 334.464844 543.34375 L 334.464844 541.199219 L 334.148438 537.472656 C 333.203125 524.851562 332.699219 515.511719 332.574219 506.929688 C 332.574219 504.785156 332.574219 502.703125 332.574219 500.621094 L 332.574219 493.109375 C 332.574219 487.429688 332.574219 481.625 332.574219 476.007812 C 332.257812 466.097656 331.625 455.875 330.679688 443.695312 L 330.300781 439.214844 L 330.300781 436.566406 C 329.734375 428.992188 329.039062 420.410156 328.851562 412.140625 C 328.664062 403.875 328.851562 396.492188 329.292969 389.484375 L 329.292969 387.78125 C 329.292969 385.761719 329.292969 383.933594 329.292969 382.101562 C 329.292969 373.582031 329.671875 363.988281 329.671875 352.882812 C 329.671875 348.589844 329.671875 344.238281 329.671875 340.261719 L 329.671875 338.746094 C 329.671875 333.636719 329.671875 328.082031 329.671875 322.71875 C 329.671875 312.242188 329.355469 301.574219 329.039062 292.425781 C 328.285156 270.527344 327.96875 250.523438 328.03125 231.210938 C 328.03125 226.792969 328.03125 222.3125 328.03125 217.832031 C 328.628906 204.570312 328.25 191.339844 326.894531 178.136719 C 326.515625 175.359375 326.140625 172.582031 325.699219 169.804688 C 325.699219 168.671875 325.382812 167.597656 325.320312 166.460938 C 325.207031 165.03125 325.34375 163.628906 325.734375 162.25 C 326.125 160.871094 326.746094 159.605469 327.589844 158.445312 C 329.464844 156.59375 331.582031 155.082031 333.945312 153.917969 C 336.308594 152.75 338.792969 151.988281 341.40625 151.632812 C 343.804688 151.144531 346.222656 150.789062 348.660156 150.558594 C 354.964844 149.800781 361.273438 149.359375 367.582031 149.105469 L 371.113281 149.105469 C 375.65625 149.105469 380.074219 149.105469 384.363281 149.546875 L 391.804688 149.546875 L 398.492188 149.992188 C 400.898438 150.277344 403.183594 150.964844 405.347656 152.046875 C 407.515625 153.132812 409.433594 154.550781 411.109375 156.300781 C 413.320312 159.085938 415.089844 162.125 416.421875 165.421875 C 417.75 168.71875 418.585938 172.136719 418.929688 175.675781 C 419.75 180.21875 420.445312 185.140625 421.199219 191.074219 C 422.527344 202.054688 423.28125 211.710938 423.597656 220.546875 C 423.597656 226.855469 423.976562 233.167969 424.101562 239.917969 C 424.101562 243.957031 424.101562 248.058594 424.101562 252.097656 L 424.101562 267.496094 C 424.101562 272.671875 424.101562 277.972656 424.101562 283.210938 C 424.101562 293.054688 424.417969 303.027344 424.671875 312.683594 L 424.671875 322.78125 C 424.671875 330.039062 425.113281 336.285156 425.175781 342.722656 C 425.175781 352.0625 424.605469 361.65625 424.164062 369.667969 L 424.164062 372.636719 C 423.472656 383.933594 423.660156 394.851562 424.164062 403.179688 C 424.164062 413.84375 424.164062 424.320312 424.164062 433.28125 C 424.164062 440.097656 424.164062 446.851562 423.660156 454.992188 L 423.660156 459.851562 C 424.039062 463.828125 424.417969 467.804688 424.859375 471.777344 L 424.859375 472.15625 C 425.238281 475.816406 425.617188 479.476562 425.933594 483.136719 C 426.625 490.902344 426.816406 498.851562 426.941406 506.550781 L 426.941406 512.421875 C 426.941406 521.253906 427.320312 531.351562 428.078125 541.070312 L 428.582031 547.382812 L 428.582031 547.886719 C 429.210938 555.523438 429.84375 563.347656 430.03125 571.046875 C 430.03125 574.203125 430.03125 577.359375 430.03125 580.324219 L 430.03125 586.636719 C 430.03125 590.675781 430.472656 594.777344 430.851562 598.753906 L 430.851562 601.527344 C 431.796875 611.1875 432.09375 620.863281 431.734375 630.558594 C 431.734375 631.632812 431.734375 632.769531 431.734375 633.839844 C 431.6875 637.070312 431.476562 640.289062 431.105469 643.496094 C 430.453125 648.203125 429.320312 652.789062 427.699219 657.253906 C 426.785156 660.230469 425.394531 662.964844 423.535156 665.457031 C 422.636719 666.578125 421.628906 667.589844 420.507812 668.488281 L 419.183594 668.488281 L 414.199219 668.992188 L 407.890625 669.6875 C 401.265625 670.128906 394.453125 670.253906 388.96875 670.316406 L 382.660156 670.316406 Z M 383.792969 670.507812 " fill-opacity="1" fill-rule="nonzero"/><g clip-path="url(#4d5d1493c0)"><path fill="#5f4326" d="M 566.726562 656.875 L 562.121094 656.242188 L 558.398438 655.800781 L 554.363281 655.234375 L 551.335938 654.160156 C 549.722656 653.539062 548.355469 652.574219 547.234375 651.257812 C 546.316406 650.023438 545.6875 648.65625 545.34375 647.15625 C 544.648438 645.011719 543.890625 642.992188 542.882812 640.46875 L 542.882812 639.898438 L 542.441406 638.761719 L 541.808594 637.121094 L 541.496094 636.238281 C 539.980469 632.453125 538.53125 628.664062 537.140625 624.878906 L 535.058594 619.199219 L 534.429688 617.621094 C 533.546875 615.097656 532.601562 612.574219 531.652344 610.046875 C 529.761719 605.125 527.871094 600.265625 525.914062 595.34375 C 522.191406 585.941406 518.535156 575.90625 515.0625 565.496094 C 513.488281 560.949219 511.972656 556.15625 510.648438 551.863281 L 510.648438 550.472656 C 509.007812 545.488281 507.367188 540.25 505.664062 535.140625 C 503.960938 530.027344 501.941406 524.472656 500.238281 519.804688 L 500.238281 518.984375 L 499.863281 517.910156 C 498.789062 515.070312 497.78125 512.230469 496.832031 509.453125 C 493.113281 499.042969 490.019531 489.703125 487.308594 480.867188 L 487.941406 482.066406 C 485.101562 473.609375 482.578125 464.964844 480.117188 456.820312 L 480.117188 455.179688 L 478.539062 449.753906 C 477.71875 446.914062 476.835938 444.074219 476.015625 441.234375 L 475.007812 437.890625 C 473.179688 431.578125 471.222656 425.269531 469.394531 418.957031 C 467.125 410.753906 464.976562 402.359375 463.085938 394.914062 L 462.769531 393.777344 L 461.128906 387.464844 C 458.230469 375.980469 455.515625 365.632812 452.804688 355.914062 C 451.289062 350.546875 449.839844 345.183594 448.324219 339.820312 L 447.820312 338.179688 C 446.433594 333.128906 445.234375 328.902344 444.160156 324.546875 C 441.449219 312.746094 439.179688 302.269531 437.222656 292.425781 L 436.527344 288.640625 L 436.527344 287.566406 C 435.898438 284.347656 435.140625 280.5 434.320312 276.835938 C 433.5 273.175781 433.058594 270.96875 432.367188 268.128906 L 432.367188 263.964844 L 431.484375 260.367188 L 431.484375 260.050781 C 429.84375 253.109375 428.078125 245.597656 426.121094 237.648438 C 426.121094 235.585938 426.121094 233.484375 426.121094 231.335938 C 426.121094 229.507812 426.121094 227.675781 426.121094 225.847656 L 428.140625 225.46875 L 428.832031 225.46875 L 430.726562 225.152344 L 433.941406 225.152344 C 438.800781 224.207031 443.847656 223.257812 448.828125 222.753906 C 455.453125 222.058594 462.457031 221.238281 470.152344 220.230469 L 475.703125 219.535156 C 476.289062 220.207031 476.859375 220.964844 477.40625 221.808594 C 478.917969 223.953125 480.242188 226.160156 481.570312 228.117188 C 486.472656 237.417969 490.65625 247.03125 494.121094 256.957031 C 496.769531 263.269531 499.167969 269.960938 502.007812 277.65625 L 505.351562 287.3125 L 509.703125 298.800781 L 510.207031 300.0625 L 510.207031 300.441406 L 510.773438 301.953125 C 512.855469 307.320312 514.9375 312.746094 517.082031 318.109375 C 520.742188 327.957031 524.273438 338.429688 527.804688 350.105469 C 530.707031 359.445312 533.609375 369.417969 536.953125 381.660156 C 539.792969 392.011719 542.882812 402.613281 546.035156 413.214844 L 549.253906 423.878906 C 551.523438 431.199219 553.667969 438.332031 555.5625 445.460938 C 558.398438 455.246094 561.050781 465.277344 563.574219 474.996094 L 563.574219 477.269531 C 565.277344 483.957031 566.980469 490.773438 568.617188 497.464844 L 568.996094 498.914062 L 569.503906 501.0625 L 569.503906 502.703125 C 572.53125 515.007812 575.808594 527.945312 579.089844 540.0625 C 581.804688 549.652344 584.832031 559.371094 587.226562 567.136719 L 587.226562 567.828125 L 588.109375 570.667969 C 591.203125 580.703125 594.417969 591.179688 597.257812 602.222656 L 597.257812 605 C 599.65625 613.582031 602.367188 623.300781 604.828125 632.894531 L 608.234375 646.460938 L 606.402344 647.09375 L 600.097656 649.238281 L 599.210938 649.554688 C 597.507812 650.121094 595.492188 650.816406 593.535156 651.320312 C 589.5625 652.332031 585.652344 653.277344 581.867188 654.097656 L 572.84375 655.929688 C 570.824219 656.371094 568.785156 656.683594 566.726562 656.875 Z M 566.726562 656.875 " fill-opacity="1" fill-rule="nonzero"/></g></svg>