<svg xmlns="http://www.w3.org/2000/svg" width="1332" height="1086" viewBox="0 0 1332 1086">
  <rect width="100%" height="100%" fill="#efefef"/>
  
<!-- orange star -->
<path d="M520 82 L575 194 L700 212 L610 290 L632 412 L520 352 L408 412 L430 290 L340 212 L465 194 Z" fill="#ff6a2f"/>
<path d="M470 223 Q485 243 500 223" stroke="#1c135b" stroke-width="8" fill="none" stroke-linecap="round"/>
<path d="M540 223 Q555 243 570 223" stroke="#1c135b" stroke-width="8" fill="none" stroke-linecap="round"/>
<path d="M486 274 Q520 309 554 274" stroke="#1c135b" stroke-width="6" fill="none" stroke-linecap="round"/>

<!-- yellow semicircle -->
<path d="M285 446 A200 200 0 0 0 755 446 L755 446 L285 446 Z" fill="#f5b640"/>

    <circle cx="500" cy="555" r="18" fill="white"/>
    <circle cx="610" cy="555" r="18" fill="white"/>
    <circle cx="490" cy="555" r="10.799999999999999" fill="#1c135b"/>
    <circle cx="620" cy="555" r="10.799999999999999" fill="#1c135b"/>
<path d="M538 575 Q550 587 565 575" stroke="#1c135b" stroke-width="5" fill="none" stroke-linecap="round"/>

<!-- green rounded -->
<path d="M28 558 Q28 466 120 466 L130 466 Q220 466 220 558 L220 916 L28 916 Z" fill="#118d74"/>

    <circle cx="93" cy="550" r="18" fill="white"/>
    <circle cx="158" cy="550" r="18" fill="white"/>
    <circle cx="84" cy="550" r="10.799999999999999" fill="#1c135b"/>
    <circle cx="167" cy="550" r="10.799999999999999" fill="#1c135b"/>
<path d="M73 522 L92 537" stroke="#1c135b" stroke-width="10" stroke-linecap="round"/>
<path d="M165 537 L184 522" stroke="#1c135b" stroke-width="10" stroke-linecap="round"/>
<path d="M116 561 L138 561" stroke="#1c135b" stroke-width="5" stroke-linecap="round"/>

<!-- pink triangle -->
<path d="M700 714 L950 274 L1200 714 Z" fill="#e4a0ef"/>

    <circle cx="850" cy="470" r="16" fill="white"/>
    <circle cx="960" cy="470" r="16" fill="white"/>
    <circle cx="842" cy="470" r="9.6" fill="#1c135b"/>
    <circle cx="968" cy="470" r="9.6" fill="#1c135b"/>
<path d="M830 444 L860 459" stroke="#1c135b" stroke-width="10" stroke-linecap="round"/>
<path d="M950 459 L980 444" stroke="#1c135b" stroke-width="10" stroke-linecap="round"/>
<path d="M885 500 Q920 535 955 500" stroke="#1c135b" stroke-width="6" fill="#1c135b" stroke-linecap="round"/>

<!-- blue rectangle -->
<rect x="394" y="641" width="529" height="278" rx="10" fill="#5867f0"/>

    <circle cx="750" cy="835" r="16" fill="white"/>
    <circle cx="830" cy="835" r="16" fill="white"/>
    <circle cx="742" cy="835" r="9.6" fill="#1c135b"/>
    <circle cx="838" cy="835" r="9.6" fill="#1c135b"/>
<path d="M790 842 L820 842" stroke="#1c135b" stroke-width="5" stroke-linecap="round"/>

<!-- yellow circle -->
<circle cx="1095" cy="815" r="105" fill="#f5b640"/>

    <circle cx="1075" cy="810" r="18" fill="white"/>
    <circle cx="1150" cy="810" r="18" fill="white"/>
    <circle cx="1065" cy="810" r="10.799999999999999" fill="#1c135b"/>
    <circle cx="1160" cy="810" r="10.799999999999999" fill="#1c135b"/>
<circle cx="1110" cy="845" r="8" fill="none" stroke="#1c135b" stroke-width="4"/>

</svg>