<svg xmlns="http://www.w3.org/2000/svg" width="1467" height="935" viewBox="0 0 1467 935">
  <rect width="1467" height="935" fill="#efefef"/>
  <!-- top orange circle -->
  <g id="orange_circle">
    <circle cx="341" cy="277" r="82" fill="#ff6a2e"/>
    <circle cx="300" cy="274" r="18" fill="#f8f8f8"/>
    <circle cx="338" cy="274" r="18" fill="#f8f8f8"/>
    <circle cx="296" cy="276" r="14" fill="#19135f"/>
    <circle cx="334" cy="276" r="14" fill="#19135f"/>
    <circle cx="340" cy="326" r="8" fill="#efefef"/>
    <circle cx="340" cy="326" r="8" fill="none" stroke="#19135f" stroke-width="4"/>
  </g>

  <!-- blue diamond -->
  <g id="blue_diamond">
    <path d="M294 395 L463 614 L294 864 L131 614 Z" fill="#5865f2"/>
    <circle cx="255" cy="528" r="17" fill="#f8f8f8"/>
    <circle cx="339" cy="528" r="17" fill="#f8f8f8"/>
    <circle cx="255" cy="529" r="7" fill="#19135f"/>
    <circle cx="339" cy="529" r="7" fill="#19135f"/>
    <path d="M270 563 Q296 539 322 563 L322 575 Q296 597 270 575 Z" fill="#19135f"/>
    <path d="M296 568 Q307 567 314 579 Q304 589 290 582 Z" fill="#f49de6"/>
  </g>

  <!-- yellow rounded rectangle -->
  <g id="yellow_rect">
    <rect x="417" y="362" width="185" height="506" rx="8" fill="#f4b43c"/>
    <path d="M456 788 q12 24 24 0" fill="none" stroke="#19135f" stroke-width="8" stroke-linecap="round"/>
    <path d="M534 788 q12 24 24 0" fill="none" stroke="#19135f" stroke-width="8" stroke-linecap="round"/>
    <path d="M495 806 q15 9 30 0" fill="#19135f"/>
  </g>

  <!-- top green semicircle -->
  <g id="green_semicircle">
    <path d="M473 327 A 249 249 0 0 1 971 327 L 971 360 L 473 360 Z" fill="#148d73"/>
    <circle cx="679" cy="283" r="17" fill="#f8f8f8"/>
    <circle cx="756" cy="283" r="17" fill="#f8f8f8"/>
    <path d="M662 290 a17 17 0 0 1 34 0" fill="#19135f"/>
    <path d="M739 290 a17 17 0 0 1 34 0" fill="#19135f"/>
    <path d="M709 321 q11 16 24 0" fill="none" stroke="#19135f" stroke-width="4" stroke-linecap="round"/>
  </g>

  <!-- pink octagon -->
  <g id="pink_octagon">
    <path d="M751 362 H 1019 L 1178 521 V 717 L 1019 867 H 751 L 592 708 V 521 Z" fill="#db91e7"/>
    <path d="M850 671 l18 -18" stroke="#19135f" stroke-width="10" stroke-linecap="round"/>
    <path d="M949 653 l18 18" stroke="#19135f" stroke-width="10" stroke-linecap="round"/>
    <circle cx="856" cy="710" r="18" fill="#f8f8f8"/>
    <circle cx="951" cy="710" r="18" fill="#f8f8f8"/>
    <circle cx="856" cy="710" r="9" fill="#19135f"/>
    <circle cx="951" cy="710" r="9" fill="#19135f"/>
    <path d="M880 742 q24 12 48 0 v16 q-24 16 -48 0 z" fill="#19135f"/>
    <rect x="899" y="740" width="10" height="10" rx="2" fill="#f8f8f8"/>
    <rect x="912" y="740" width="10" height="10" rx="2" fill="#f8f8f8"/>
  </g>

  <!-- bottom right green circle -->
  <g id="green_circle">
    <circle cx="1204" cy="717" r="146" fill="#148d73"/>
    <circle cx="1168" cy="807" r="18" fill="#f8f8f8"/>
    <circle cx="1236" cy="807" r="18" fill="#f8f8f8"/>
    <path d="M1150 814 a18 18 0 0 0 36 0" fill="#19135f"/>
    <path d="M1218 814 a18 18 0 0 0 36 0" fill="#19135f"/>
    <circle cx="1202" cy="812" r="7" fill="#19135f"/>
  </g>
</svg>